<?xml version="1.0" encoding="utf-8"?>
<!-- Generator: Adobe Illustrator 26.0.2, SVG Export Plug-In . SVG Version: 6.00 Build 0)  -->
<svg version="1.1" id="Layer_2" xmlns="http://www.w3.org/2000/svg" xmlns:xlink="http://www.w3.org/1999/xlink" x="0px" y="0px"
	 viewBox="0 0 997.26 308.99" style="enable-background:new 0 0 997.26 308.99;" xml:space="preserve">
<style type="text/css">
	.st0{fill-rule:evenodd;clip-rule:evenodd;fill:#00418B;}
</style>
<g>
	<g>
		<path class="st0" d="M294.26,122.84C276.45,46.14,199.83-1.6,123.13,16.21C46.44,34.02-1.3,110.64,16.51,187.34
			c17.81,76.7,94.43,124.44,171.12,106.62C264.33,276.15,312.07,199.54,294.26,122.84z M183.08,274.33
			c-65.86,15.29-131.65-25.7-146.94-91.55c-15.29-65.86,25.7-131.64,91.55-146.94c65.86-15.29,131.65,25.7,146.94,91.55
			C289.92,193.25,248.93,259.04,183.08,274.33z"/>
		<g>
			<path class="st0" d="M111.05,108.41c-0.07,1.71-1.25,4.22-3.02,4.87c-4.67,1.7-11.54-3.4-22.26-0.7
				c-15.52,3.91-22.66,17.64-19.87,33.51c1.33,7.59,4.73,12.63,9.25,16.21l0,0c15.09,11.93,42.73,7.45,48.05,26.2
				c0.05,0.19,0.11,0.38,0.16,0.58c0.9,3.54,0.52,16.58-12.1,19.44c-11.27,2.55-23.02-3.3-30.33-10.18
				c-2.62-2.47-4.67-5.06-5.92-7.44l-3.48,0.82l1.92,8.36l4.75,20.6l4.62-1.07c-0.09-1.37,0.91-5.91,1.41-7.02
				c2.86-6.44,14.05,4.18,27.34,0.73c12.45-3.23,25.04-13.56,25.93-28.14c0.18-2.99-0.13-6.16-1.03-9.49
				c-3.4-12.52-11.71-18.86-21.01-22.77l0,0c-15.85-6.65-34.6-6.25-36.97-17.26c-1.27-5.88-0.12-15.75,10.65-18.7
				c12.1-3.32,21.23,3.68,27.76,17.77l4.73-1.01l-5.02-21.13c0,0,12.12-4.13,14.17,6.43c0.54,2.69,3.43,15.22,6.58,28.8
				c3.2,13.79,6.69,28.67,8.42,36.11l0,0c0.46,1.97,0.73,3.11,0.73,3.11c2.22,12.15-14.05,15.44-14.05,15.44l1.23,5.29l32.5-7.57
				c0.42,2.08,1.02,4.05,1.78,5.91c6.2,15.1,23.12,22.65,40.33,18.65c21.68-5.05,27.62-20.69,27.97-34.55l0,0
				c0.1-4.28-0.33-8.4-0.99-11.98c0,0-1.19-5.2-2.95-12.93l0.01,0c-2.49-10.87-5.86-25.57-8.62-37.58
				c-3.05-13.28-5.72-24.79-6.49-27.9c-1.71-6.9,3.47-11.66,10.77-12.95l-1.25-5.39L111.05,108.41z M145.29,106.12
				c7.47-1.43,29.42-10.8,35.08,16.57c1.3,6.3,1.05,11.25-0.18,15.16c-3.93,12.41-17.86,14.33-23.89,15.58L145.29,106.12z
				 M218.95,194.25c0.2,8.39-3.43,18.94-18.86,22.29c-14.62,3.18-23.07-4.97-26.95-11.62l0,0c-1.32-2.26-2.11-4.34-2.44-5.76
				l12.21-2.84l-1.23-5.29c-2.6,0.6-8.83,2.56-12.14,1c-0.62-3.5,2.45-9.08,6.49-10.02c4.04-0.94,4.35,0.81,8.5-0.06
				c4.2-0.98,6.91-4.99,6.34-9.19c-0.04-0.26-0.09-0.51-0.15-0.77c-1.04-4.46-5.49-7.24-9.96-6.2c-3.66-0.03-9.83,4.75-13.09,12.37
				l0,0c-1.27,2.95-2.1,6.34-2.17,10.04c-0.86-0.2-2.08-3.26-2.41-5.11c0,0-0.27-1.17-0.69-3.02l0,0
				c-1.77-7.72-5.19-22.55-5.31-22.75c3.33-0.06,16.36-3.75,18.96-4.31c10.98-2.36,18.35-10.06,21.28-19.13l0.01,0
				c1.55-4.81,1.86-10.01,0.78-15c-3.74-17.38-16.59-21.18-16.59-21.18l1.64-0.38c7.12-2.06,13.87-0.09,15.38,6.86
				c0,0,2.9,12.52,6.47,27.91c2.69,11.57,6.04,26,8.73,37.56c2.33,9.99,4.06,17.39,4.34,18.49
				C218.56,189.88,218.89,191.99,218.95,194.25L218.95,194.25z"/>
			<path class="st0" d="M243.65,210.24c2.8-0.65,4.55-3.39,3.9-6.14c-0.63-2.7-3.41-4.38-6.2-3.73c-2.81,0.65-4.57,3.39-3.95,6.09
				C238.05,209.21,240.84,210.89,243.65,210.24L243.65,210.24z M241.58,201.33c2.26-0.53,4.51,0.81,5.01,2.99
				c0.52,2.25-0.9,4.42-3.17,4.95c-2.29,0.53-4.53-0.79-5.05-3.04C237.86,204.05,239.28,201.86,241.58,201.33L241.58,201.33z
				 M243.36,205.32c1-0.26,1.69-0.85,1.43-1.94c-0.11-0.46-0.43-0.9-0.91-1.04c-0.49-0.14-0.97-0.05-1.45,0.06l-2.47,0.58l1.29,5.52
				l0.84-0.2l-0.59-2.54l0.99-0.23l2.21,2.17l0.96-0.22L243.36,205.32L243.36,205.32z M241.34,205.07l-0.39-1.66l1.47-0.34
				c0.71-0.17,1.36-0.21,1.53,0.5c0.23,0.99-0.89,1.11-1.69,1.29L241.34,205.07L241.34,205.07z"/>
		</g>
	</g>
	<g>
		<path class="st0" d="M342.07,197.43v37.38c0,3.58-1.38,5.6-3.86,5.6c-2.66,0-4.22-1.92-5.32-6.43l-8.08,18.92
			c6.15,4.5,12.21,6.71,18.27,6.71c11.84,0,20.84-8.63,20.84-20.02v-42.15H342.07z"/>
		<path class="st0" d="M400.82,196.52c-20.11,0-34.16,13.14-34.16,31.77c0,18.37,13.96,31.31,33.7,31.31
			c19.65,0,33.97-13.23,33.97-31.5C434.33,209.46,420.56,196.52,400.82,196.52 M400.27,216.26c6.88,0,11.57,4.87,11.57,12.03
			c0,6.79-4.59,11.57-11.2,11.57c-6.7,0-11.48-4.87-11.48-11.75C389.15,221.31,393.93,216.26,400.27,216.26"/>
		<path class="st0" d="M437.79,197.43v38.66c0,14.78,10.74,23.51,28.92,23.51c17.26,0,27.73-9.45,27.73-25.07v-37.1h-22.12v35.08
			c0,5.79-1.65,7.89-6.16,7.89c-4.13,0-6.24-2.66-6.24-7.89v-35.08H437.79z"/>
		<path class="st0" d="M499.87,258.69h21.67v-19.65l0.37-0.19c0.28,0.83,0.37,1.01,0.83,1.93l8.81,17.91h25.61l-13.76-20.67
			c-0.73-1.1-1.48-1.75-3.22-2.85v-0.55c4.23-1.29,6.43-2.39,7.99-4.23c2.48-2.76,3.84-7.07,3.84-11.85
			c0-7.72-3.21-13.59-9.82-17.63c-4.04-2.56-8.08-3.49-14.69-3.49h-27.64V258.69z M521.54,224.71v-10.47h3.86
			c2.94,0,5.04,2.21,5.04,5.33c0,3.11-2.29,5.13-5.87,5.13H521.54z"/>
		<path class="st0" d="M561.04,258.69h21.3l-0.27-20.85c0-3.03-0.28-5.7-1.2-11.3h0.64c1.66,3.68,2.57,5.42,4.22,7.99l15.25,24.16
			h21.3v-61.25h-21.3l0.35,19.38c0.1,7.07,0.28,8.54,1.58,14.6h-0.65c-2.11-4.77-2.76-5.97-5.79-10.93l-14.14-23.06h-21.3V258.69z"
			/>
		<path class="st0" d="M649.68,251.06h16.89l2.02,7.62h23.61l-21.85-61.26h-24.6l-21.22,61.26h23.51L649.68,251.06z M653.81,236.55
			l3.03-11.75c0.37-1.47,0.55-3.13,1.02-6.89h0.82c0.28,2.85,0.38,3.22,1.2,6.89l2.85,11.75H653.81z"/>
		<polygon class="st0" points="694.22,258.69 735.26,258.69 735.26,238.94 716.53,238.94 716.53,197.43 694.22,197.43 		"/>
		<rect x="739.77" y="197.43" class="st0" width="22.31" height="61.25"/>
		<path class="st0" d="M766.5,254c7.62,3.67,15.61,5.6,23.5,5.6c15.52,0,26.55-9.09,26.55-21.85c0-9.09-5.32-15.15-15.15-17.36
			l-7.17-1.47c-2.38-0.55-3.48-1.47-3.48-2.85c0-2.02,1.93-3.31,4.86-3.31c4.23,0,7.8,1.29,12.86,4.68l5.96-15.7
			c-6.51-3.68-12.02-5.24-18.82-5.24c-15.7,0-26.99,9.37-26.99,22.23c0,8.53,5.69,14.69,14.96,16.34l6.42,1.2
			c2.86,0.46,4.04,1.47,4.04,3.22c0,2.11-2.3,3.57-5.51,3.57c-4.13,0-9.28-1.82-12.86-4.58l-2.38-1.84L766.5,254z"/>
		<polygon class="st0" points="829.36,258.69 851.22,258.69 851.22,216.71 863.52,217.36 863.52,197.43 816.78,197.43 
			816.78,217.36 829.36,216.71 		"/>
		<path class="st0" d="M863.82,254c7.63,3.67,15.62,5.6,23.51,5.6c15.52,0,26.55-9.09,26.55-21.85c0-9.09-5.32-15.15-15.15-17.36
			l-7.17-1.47c-2.38-0.55-3.48-1.47-3.48-2.85c0-2.02,1.93-3.31,4.86-3.31c4.22,0,7.81,1.29,12.86,4.68l5.97-15.7
			c-6.52-3.68-12.03-5.24-18.83-5.24c-15.69,0-26.99,9.37-26.99,22.23c0,8.53,5.69,14.69,14.96,16.34l6.42,1.2
			c2.86,0.46,4.05,1.47,4.05,3.22c0,2.11-2.3,3.57-5.52,3.57c-4.13,0-9.27-1.82-12.85-4.58l-2.39-1.84L863.82,254z"/>
		<path class="st0" d="M331.88,184.11h21.67v-18.46h12.3c11.75,0,19.56-8.26,19.56-20.75c0-13.13-9.73-22.03-24.15-22.03h-29.38
			V184.11z M353.54,150.23v-10.56h4.14c3.76,0,6.06,1.93,6.06,5.05c0,3.4-2.48,5.52-6.34,5.52H353.54z"/>
		<path class="st0" d="M389.04,184.11h21.67v-19.66l0.37-0.17c0.28,0.82,0.37,1.01,0.83,1.92l8.82,17.91h25.61l-13.77-20.66
			c-0.74-1.1-1.47-1.75-3.21-2.85v-0.55c4.22-1.29,6.43-2.39,7.99-4.23c2.48-2.74,3.86-7.07,3.86-11.84c0-7.7-3.22-13.58-9.83-17.62
			c-4.04-2.58-8.08-3.49-14.69-3.49h-27.64V184.11z M410.71,150.13v-10.47h3.86c2.94,0,5.05,2.21,5.05,5.33
			c0,3.13-2.3,5.14-5.88,5.14H410.71z"/>
		<path class="st0" d="M477.41,121.95c-20.11,0-34.16,13.13-34.16,31.77c0,18.36,13.96,31.31,33.7,31.31
			c19.65,0,33.97-13.22,33.97-31.5C510.93,134.89,497.16,121.95,477.41,121.95 M476.86,141.68c6.89,0,11.57,4.87,11.57,12.04
			c0,6.79-4.59,11.57-11.2,11.57c-6.71,0-11.48-4.87-11.48-11.76C465.76,146.74,470.53,141.68,476.86,141.68"/>
		<polygon class="st0" points="514.38,184.11 536.7,184.11 536.7,162.62 553.05,162.62 553.05,146.55 536.7,146.55 536.7,140.31 
			555.24,140.31 555.24,122.86 514.38,122.86 		"/>
		<polygon class="st0" points="560.15,184.11 602.11,184.11 602.11,167.31 582.46,167.31 582.46,161.43 599.73,161.43 
			599.73,145.36 582.46,145.36 582.46,139.66 601.47,139.66 601.47,122.86 560.15,122.86 		"/>
		<path class="st0" d="M604.8,179.43c7.62,3.67,15.61,5.6,23.51,5.6c15.52,0,26.53-9.08,26.53-21.86c0-9.08-5.33-15.15-15.15-17.35
			l-7.15-1.47c-2.39-0.56-3.49-1.47-3.49-2.85c0-2.02,1.93-3.3,4.87-3.3c4.22,0,7.8,1.28,12.85,4.68l5.97-15.71
			c-6.52-3.66-12.03-5.22-18.82-5.22c-15.7,0-27,9.36-27,22.21c0,8.55,5.69,14.7,14.97,16.35l6.42,1.19
			c2.84,0.46,4.04,1.47,4.04,3.21c0,2.11-2.3,3.59-5.51,3.59c-4.14,0-9.28-1.84-12.86-4.59l-2.39-1.84L604.8,179.43z"/>
		<path class="st0" d="M655.66,179.43c7.62,3.67,15.61,5.6,23.51,5.6c15.52,0,26.53-9.08,26.53-21.86c0-9.08-5.32-15.15-15.15-17.35
			l-7.16-1.47c-2.39-0.56-3.49-1.47-3.49-2.85c0-2.02,1.93-3.3,4.86-3.3c4.23,0,7.81,1.28,12.86,4.68l5.97-15.71
			c-6.52-3.66-12.03-5.22-18.83-5.22c-15.69,0-26.99,9.36-26.99,22.21c0,8.55,5.69,14.7,14.97,16.35l6.42,1.19
			c2.85,0.46,4.04,1.47,4.04,3.21c0,2.11-2.3,3.59-5.51,3.59c-4.14,0-9.28-1.84-12.86-4.59l-2.39-1.84L655.66,179.43z"/>
		<rect x="709.26" y="122.87" class="st0" width="22.32" height="61.25"/>
		<path class="st0" d="M770.4,121.95c-20.11,0-34.16,13.13-34.16,31.77c0,18.36,13.96,31.31,33.69,31.31
			c19.65,0,33.97-13.22,33.97-31.5C803.9,134.89,790.14,121.95,770.4,121.95 M769.85,141.68c6.89,0,11.56,4.87,11.56,12.04
			c0,6.79-4.6,11.57-11.2,11.57c-6.7,0-11.48-4.87-11.48-11.76C758.73,146.74,763.51,141.68,769.85,141.68"/>
		<path class="st0" d="M807.36,184.11h21.29l-0.27-20.85c0-3.03-0.28-5.7-1.2-11.29h0.64c1.65,3.68,2.56,5.42,4.23,7.99l15.24,24.15
			h21.3v-61.25h-21.3l0.37,19.37c0.1,7.08,0.28,8.55,1.56,14.6h-0.64c-2.11-4.78-2.75-5.97-5.79-10.93l-14.14-23.04h-21.29V184.11z"
			/>
		<path class="st0" d="M896,176.49h16.89l2.03,7.62h23.59l-21.84-61.25h-24.62l-21.2,61.25h23.49L896,176.49z M900.13,161.98
			l3.03-11.75c0.37-1.48,0.55-3.13,1.01-6.89H905c0.27,2.85,0.37,3.21,1.19,6.89l2.85,11.75H900.13z"/>
		<polygon class="st0" points="940.53,184.11 981.58,184.11 981.58,164.36 962.84,164.36 962.84,122.86 940.53,122.86 		"/>
		<path class="st0" d="M329.12,104.85c7.62,3.68,15.61,5.6,23.5,5.6c15.52,0,26.54-9.09,26.54-21.85c0-9.09-5.33-15.15-15.15-17.36
			l-7.17-1.47c-2.38-0.55-3.49-1.46-3.49-2.84c0-2.02,1.93-3.31,4.87-3.31c4.22,0,7.81,1.29,12.85,4.69l5.97-15.7
			c-6.52-3.68-12.02-5.23-18.82-5.23c-15.7,0-26.99,9.37-26.99,22.22c0,8.54,5.69,14.69,14.97,16.35l6.42,1.19
			c2.85,0.46,4.04,1.47,4.04,3.22c0,2.11-2.3,3.58-5.51,3.58c-4.14,0-9.28-1.83-12.86-4.59l-2.39-1.83L329.12,104.85z"/>
		<path class="st0" d="M414.14,47.37c-20.11,0-34.16,13.13-34.16,31.77c0,18.36,13.96,31.31,33.7,31.31
			c19.65,0,33.97-13.22,33.97-31.49C447.65,60.32,433.88,47.37,414.14,47.37 M413.58,67.11c6.89,0,11.57,4.87,11.57,12.03
			c0,6.8-4.59,11.57-11.2,11.57c-6.71,0-11.47-4.87-11.47-11.75C402.48,72.16,407.25,67.11,413.58,67.11"/>
		<path class="st0" d="M497.73,85.11c-4.59,4.14-7.99,5.7-12.76,5.7c-6.8,0-12.31-5.41-12.31-12.03c0-6.61,5.33-11.84,12.12-11.84
			c4.22,0,7.98,1.84,12.94,6.15l-0.64-23.32c-4.32-1.56-9.74-2.38-14.97-2.38c-18,0-31.96,14.05-31.96,32.05
			c0,17.45,13.68,31.03,31.22,31.03c5.69,0,12.3-1.01,15.7-2.48L497.73,85.11z"/>
		<rect x="502.23" y="48.29" class="st0" width="22.31" height="61.24"/>
		<polygon class="st0" points="530.13,109.53 572.09,109.53 572.09,92.73 552.45,92.73 552.45,86.85 569.7,86.85 569.7,70.78 
			552.45,70.78 552.45,65.09 571.45,65.09 571.45,48.29 530.13,48.29 		"/>
		<polygon class="st0" points="587.84,109.53 609.69,109.53 609.69,67.57 621.99,68.21 621.99,48.29 575.26,48.29 575.26,68.21 
			587.84,67.57 		"/>
		<path class="st0" d="M622.19,48.29l21.3,34.89v26.35h21.95V83.18l20.85-34.89H661.3l-4.78,11.2c-1,2.21-1.1,2.67-1.65,4.87h-0.65
			c-0.92-2.94-1.18-3.86-1.65-4.87l-5.24-11.2H622.19z"/>
		<path class="st0" d="M736,47.37c-20.11,0-34.16,13.13-34.16,31.77c0,18.36,13.96,31.31,33.7,31.31
			c19.65,0,33.97-13.22,33.97-31.49C769.52,60.32,755.74,47.37,736,47.37 M735.45,67.11c6.89,0,11.58,4.87,11.58,12.03
			c0,6.8-4.6,11.57-11.21,11.57c-6.7,0-11.48-4.87-11.48-11.75C724.33,72.16,729.11,67.11,735.45,67.11"/>
		<polygon class="st0" points="772.06,109.53 794.36,109.53 794.36,88.05 810.71,88.05 810.71,71.98 794.36,71.98 794.36,65.74 
			812.92,65.74 812.92,48.29 772.06,48.29 		"/>
	</g>
</g>
</svg>
